<?xml version="1.0" standalone="no"?>
<!DOCTYPE svg PUBLIC "-//W3C//DTD SVG 20010904//EN"
 "http://www.w3.org/TR/2001/REC-SVG-20010904/DTD/svg10.dtd">
<svg version="1.0" xmlns="http://www.w3.org/2000/svg"
 width="388.000000pt" height="320.000000pt" viewBox="0 0 388.000000 320.000000"
 preserveAspectRatio="xMidYMid meet">

<g transform="translate(0.000000,320.000000) scale(0.100000,-0.100000)"
fill="#000000" stroke="none">
<path d="M1853 3186 c-23 -8 -61 -24 -85 -38 -42 -23 -1621 -1330 -1705 -1411
-89 -85 -81 -136 47 -289 112 -133 157 -157 233 -124 18 7 383 307 812 665
429 358 785 649 792 646 6 -2 362 -296 791 -653 503 -419 792 -654 816 -662
43 -14 85 -6 122 22 40 32 175 198 190 235 37 88 21 110 -266 348 l-249 206
-3 477 c-3 459 -4 478 -23 512 -40 68 -57 71 -355 68 -234 -3 -269 -5 -293
-21 -52 -34 -61 -67 -67 -248 l-5 -167 -190 160 c-104 87 -218 179 -252 204
-106 77 -210 101 -310 70z m180 -147 c23 -12 161 -121 307 -243 278 -232 395
-326 404 -326 3 0 6 131 6 290 l0 290 230 0 230 0 0 -468 c0 -467 0 -469 23
-510 15 -27 71 -81 172 -163 193 -157 323 -267 330 -280 8 -11 -133 -181 -146
-177 -5 2 -376 309 -825 683 -449 374 -820 679 -825 678 -5 -2 -375 -309 -824
-683 -449 -374 -819 -680 -824 -680 -6 0 -105 114 -139 161 -11 16 77 91 820
711 458 381 853 703 877 715 57 30 128 30 184 2z"/>
<path d="M1905 2497 c-57 -46 -1100 -904 -1227 -1010 -60 -50 -114 -103 -122
-122 -14 -29 -16 -107 -16 -608 0 -402 3 -584 11 -608 18 -51 55 -97 102 -122
42 -22 47 -22 522 -25 264 -2 495 0 513 3 l32 6 0 439 0 440 225 0 225 0 0
-435 0 -434 38 -10 c53 -15 932 -15 983 0 50 16 105 61 132 112 22 42 22 45
25 607 2 386 0 577 -8 602 -15 52 -43 82 -193 206 -73 59 -350 288 -617 507
-267 219 -508 418 -535 441 l-50 42 -40 -31z m566 -578 c288 -238 572 -472
632 -520 l107 -89 0 -561 0 -560 -25 -24 -24 -25 -426 0 -425 0 0 440 0 440
-365 0 -365 0 0 -440 0 -440 -429 0 c-407 0 -430 1 -452 19 l-24 19 -3 559
c-2 442 0 562 10 574 7 9 220 186 473 394 253 209 532 438 620 511 88 73 163
133 166 134 3 0 242 -194 530 -431z"/>
</g>
</svg>
