<?xml version="1.0" standalone="no"?>
<!DOCTYPE svg PUBLIC "-//W3C//DTD SVG 20010904//EN"
 "http://www.w3.org/TR/2001/REC-SVG-20010904/DTD/svg10.dtd">
<svg version="1.0" xmlns="http://www.w3.org/2000/svg"
 width="320.000000pt" height="320.000000pt" viewBox="0 0 320.000000 320.000000"
 preserveAspectRatio="xMidYMid meet">

<g transform="translate(0.000000,320.000000) scale(0.100000,-0.100000)"
fill="#000000" stroke="none">
<path d="M1410 3189 c-317 -41 -596 -162 -841 -368 -497 -415 -691 -1098 -488
-1721 39 -122 123 -294 191 -392 249 -361 602 -594 1030 -680 161 -32 434 -32
594 0 663 133 1157 633 1281 1296 21 114 24 417 5 526 -62 351 -215 645 -462
890 -302 298 -711 464 -1135 459 -60 -1 -139 -5 -175 -10z m459 -174 c286 -56
538 -191 746 -400 205 -204 336 -443 396 -725 33 -151 33 -429 0 -580 -60
-282 -191 -521 -396 -725 -204 -205 -444 -336 -725 -396 -153 -33 -419 -33
-575 -1 -284 60 -524 190 -730 397 -122 121 -209 242 -280 389 -233 480 -180
1052 138 1482 66 89 212 236 302 302 190 140 433 239 670 271 98 14 354 6 454
-14z"/>
<path d="M1517 2512 c-29 -27 -173 -160 -322 -297 -509 -469 -555 -514 -555
-544 0 -37 38 -71 78 -71 37 0 16 -19 505 434 203 188 372 341 377 341 4 0
195 -173 425 -385 229 -212 427 -389 441 -394 55 -22 119 35 99 88 -6 13 -111
118 -235 232 -345 319 -600 554 -652 601 -65 59 -93 58 -161 -5z"/>
<path d="M985 1595 l-25 -24 0 -351 c0 -358 2 -379 39 -407 22 -17 1158 -18
1194 -2 14 6 30 22 36 36 7 16 11 138 11 372 0 337 -1 349 -21 375 -29 37 -89
37 -118 0 -20 -26 -21 -38 -21 -330 l0 -304 -480 0 -480 0 0 304 c0 292 -1
304 -21 330 -28 35 -80 36 -114 1z"/>
</g>
</svg>
